<?xml version="1.0" standalone="no"?>
<!DOCTYPE svg PUBLIC "-//W3C//DTD SVG 20010904//EN"
 "http://www.w3.org/TR/2001/REC-SVG-20010904/DTD/svg10.dtd">
<svg version="1.0" xmlns="http://www.w3.org/2000/svg"
 width="50px" height="45px" viewBox="0 0 300.000000 347.000000"
 preserveAspectRatio="xMidYMid meet">
<metadata>
Created by potrace 1.10, written by Peter Selinger 2001-2011
</metadata>
<g transform="translate(0.000000,347.000000) scale(0.050000,-0.050000)"
fill="#9400D3" stroke="none">
<path d="M1826 6901 c5 -22 0 -42 -12 -46 -39 -13 -29 -91 14 -106 37 -12 38
-14 7 -23 -36 -9 -49 -46 -16 -46 25 0 18 -86 -8 -105 -14 -10 -11 -22 9 -34
37 -24 43 -121 7 -107 -19 7 -21 -6 -6 -57 10 -37 19 -70 19 -73 0 -4 8 -1 18
5 25 15 41 -62 18 -85 -13 -13 -12 -24 2 -33 16 -9 16 -25 1 -53 -19 -36 19
-134 43 -110 4 5 9 -13 11 -39 l3 -48 -39 44 -39 45 22 -45 c12 -25 15 -45 8
-45 -7 0 -4 -11 7 -25 18 -22 18 -96 0 -178 -3 -14 8 -26 23 -26 38 -1 45 -65
10 -100 -21 -21 -22 -30 -3 -38 19 -7 17 -15 -5 -31 -25 -18 -24 -22 10 -22
38 -1 38 -3 5 -28 -39 -29 -49 -63 -12 -40 16 10 20 4 11 -20 -8 -20 -6 -29 6
-22 30 19 24 -23 -8 -55 -18 -19 -22 -38 -10 -57 12 -20 17 -21 18 -3 0 14 8
25 18 25 10 0 16 -27 14 -59 -3 -36 7 -64 24 -70 27 -11 24 291 -6 619 -5 55
-14 163 -20 240 -7 77 -16 167 -20 200 -5 33 -13 123 -18 200 -34 487 -34 490
-77 490 -29 0 -37 -10 -29 -39z"/>
<path d="M5028 6908 c7 -17 12 -43 12 -57 0 -15 20 -32 44 -38 24 -6 39 -17
32 -24 -7 -7 -63 4 -124 23 -89 28 -121 30 -162 12 -41 -19 -69 -16 -155 18
-73 29 -126 37 -175 28 -99 -18 -246 -12 -269 11 -52 52 -349 -11 -350 -74 -1
-13 -18 -19 -42 -13 -23 7 -57 -4 -79 -24 -33 -30 -48 -32 -98 -11 -33 14 -69
19 -81 12 -29 -18 -27 -66 4 -77 31 -12 -118 -142 -164 -143 -45 -1 -127 -72
-155 -133 -16 -38 -44 -57 -94 -66 -53 -10 -72 -24 -72 -52 0 -21 -9 -43 -20
-50 -30 -19 -24 -50 8 -38 15 6 34 1 41 -11 7 -11 4 -21 -8 -21 -11 0 -21 -13
-21 -30 0 -16 -10 -30 -21 -30 -12 0 -15 11 -8 25 8 14 -11 -1 -41 -32 -110
-114 -122 -493 -16 -493 28 0 34 -25 12 -47 -8 -8 -16 -25 -19 -39 -3 -13 -11
-44 -18 -69 -10 -34 -5 -45 19 -45 17 0 32 -12 32 -28 0 -15 14 -39 31 -53 19
-16 23 -30 11 -38 -23 -14 -6 -101 20 -101 9 0 12 -12 6 -27 -6 -15 17 -55 51
-89 33 -33 61 -73 61 -88 0 -16 10 -38 22 -50 16 -16 15 -34 -1 -65 -28 -51
-12 -211 31 -312 25 -61 76 -258 98 -379 3 -22 9 -42 11 -45 2 -3 5 -12 7 -20
1 -8 11 -28 22 -45 11 -16 31 -52 43 -80 21 -45 24 -46 28 -10 5 55 5 51 -9
135 -9 47 -6 75 7 75 12 0 21 -22 21 -50 0 -27 8 -50 19 -50 36 0 32 -71 -7
-125 -32 -45 -35 -60 -14 -80 13 -14 23 -16 21 -5 -11 57 4 90 41 90 27 0 40
-13 40 -40 0 -22 10 -40 21 -40 12 0 8 -14 -10 -31 -42 -43 -39 -62 12 -76 37
-9 40 -16 18 -42 -28 -34 -13 -131 21 -131 11 0 15 -17 9 -38 -8 -23 -1 -42
18 -49 17 -6 31 -27 31 -45 0 -25 6 -28 26 -11 14 12 45 16 67 11 27 -7 46 0
54 20 7 20 1 32 -15 32 -15 0 -33 14 -39 30 -7 17 -3 30 8 30 10 0 20 -11 21
-25 1 -14 14 5 30 41 16 36 37 61 47 55 9 -6 13 7 7 29 -6 22 -18 40 -26 40
-9 0 -22 23 -29 52 -8 33 -23 48 -40 41 -16 -6 -40 4 -55 22 -19 24 -19 29 -1
18 14 -9 25 -5 25 7 0 13 -11 19 -25 15 -14 -5 -24 -28 -23 -52 1 -32 -5 -37
-25 -21 -21 18 -19 32 9 74 32 49 32 51 -1 39 -28 -11 -35 -3 -35 37 0 28 -8
45 -18 39 -26 -16 -131 123 -164 217 -15 42 -39 81 -53 87 -14 5 -20 17 -14
27 6 10 4 29 -4 43 -21 34 -24 275 -3 287 9 6 15 35 14 64 0 30 -6 43 -11 29
-23 -55 -51 -23 -39 44 9 44 2 96 -17 142 -55 132 -24 228 65 200 48 -15 77
-79 93 -203 7 -54 22 -158 34 -232 11 -74 13 -146 4 -160 -27 -43 -6 -262 29
-302 17 -19 33 -54 35 -78 9 -125 113 -86 140 53 5 21 22 47 39 56 40 23 38
64 -11 213 -30 91 -35 133 -20 151 12 14 16 41 9 58 -8 22 -2 33 18 33 16 0
35 15 42 33 12 30 17 29 50 -6 73 -79 108 -187 61 -187 -12 0 -16 9 -9 20 7
11 3 20 -9 20 -38 0 -20 -69 35 -133 57 -67 236 -147 328 -147 29 0 59 -9 66
-20 7 -11 34 -20 61 -20 35 0 49 -11 49 -38 0 -29 10 -36 43 -27 25 7 38 3 31
-8 -6 -10 -2 -32 9 -48 17 -24 19 -23 10 6 -9 26 -1 35 34 35 25 0 76 24 114
52 60 46 62 51 19 39 -27 -8 -69 -14 -93 -13 -24 1 -49 -14 -57 -33 -12 -31
-16 -29 -32 11 -10 26 -27 41 -38 34 -11 -7 -20 -3 -20 9 0 11 11 22 25 23 45
4 64 10 121 34 74 31 141 32 122 1 -8 -13 7 -9 33 10 64 44 295 46 350 2 38
-30 38 -31 1 -55 -21 -13 -84 -54 -140 -91 -56 -37 -192 -116 -302 -176 -209
-114 -269 -164 -358 -300 -44 -66 -78 -91 -174 -126 -67 -25 -149 -73 -188
-112 -38 -38 -116 -88 -174 -111 -58 -23 -142 -71 -186 -107 -44 -36 -127 -94
-185 -130 -58 -35 -105 -71 -105 -80 0 -8 -37 -57 -82 -108 -45 -51 -74 -93
-66 -93 9 0 -8 -25 -36 -55 -82 -87 -170 -245 -228 -406 -29 -82 -70 -197 -91
-256 -21 -59 -42 -141 -46 -183 -5 -43 -17 -93 -28 -114 -10 -20 -30 -94 -44
-166 -14 -71 -38 -150 -54 -174 -91 -141 -49 -314 44 -181 17 24 31 33 31 20
0 -13 -27 -54 -60 -92 -99 -112 -205 -405 -158 -434 18 -11 19 -24 4 -42 -39
-50 -54 -148 -17 -118 53 44 36 -12 -26 -83 -117 -135 -128 -267 -13 -156 108
105 104 56 -5 -64 -147 -163 -254 -356 -196 -356 30 0 171 77 171 93 0 5 -9 4
-20 -3 -54 -34 -10 31 63 91 153 128 200 178 187 199 -7 11 -21 15 -31 9 -11
-6 -19 -1 -19 12 0 14 14 18 35 10 60 -24 72 -22 80 11 4 18 -7 38 -25 45 -18
7 -28 5 -22 -4 6 -9 -3 -16 -19 -16 -38 0 -37 11 6 60 19 22 24 33 10 25 -15
-8 -25 -4 -25 12 1 42 34 82 56 68 12 -7 27 -3 34 8 7 11 21 15 31 9 11 -6 19
-3 19 7 0 10 -36 17 -80 14 -85 -5 -99 9 -50 50 19 16 26 42 19 68 -8 30 -6
34 7 15 14 -20 21 -11 28 34 5 35 0 59 -12 57 -11 -2 -22 7 -24 21 -1 14 -5
36 -7 50 -2 14 -12 7 -21 -15 -17 -39 -17 -38 -19 4 -1 38 24 70 59 77 43 9
77 37 67 54 -9 14 -1 17 19 9 22 -8 41 1 54 27 12 21 16 39 9 39 -7 0 6 29 28
65 41 68 39 175 -4 175 -13 0 -9 9 7 20 20 13 22 19 5 20 -14 0 -25 8 -25 17
0 10 19 17 43 15 24 -1 48 11 53 26 5 15 1 23 -9 17 -9 -6 -35 1 -56 17 -21
15 -29 28 -16 28 12 0 28 29 36 65 8 36 23 71 35 78 11 8 22 46 22 85 1 40 10
72 19 72 9 0 13 11 8 24 -4 13 9 40 29 60 40 40 47 76 15 76 -12 0 -15 -10 -7
-23 8 -14 5 -18 -8 -10 -30 19 -22 90 12 102 18 7 25 36 21 86 -5 62 0 74 28
69 28 -5 31 3 17 40 -19 51 29 204 59 186 9 -6 22 8 29 30 17 55 91 122 116
106 12 -7 14 -2 6 11 -8 13 -25 18 -37 10 -14 -9 -17 -1 -8 21 7 20 13 44 13
54 0 10 16 18 35 18 28 1 29 4 7 18 -20 13 -10 21 37 32 50 11 62 22 55 51 -5
20 1 41 13 47 15 6 11 19 -11 38 -46 36 64 75 149 52 31 -8 55 -6 55 4 0 10
14 18 31 18 17 0 26 9 20 19 -7 11 -25 15 -40 9 -40 -16 -51 17 -21 59 30 41
190 72 190 37 0 -41 135 -52 172 -14 35 34 127 79 152 73 8 -1 9 11 3 27 -10
27 14 40 59 32 10 -2 11 6 4 18 -7 11 -2 20 11 20 14 0 19 17 13 40 -6 25 0
40 15 40 47 0 83 60 50 81 -22 14 -17 19 21 19 35 0 42 6 23 18 -21 13 -18 19
10 30 122 43 186 191 83 192 l-46 1 49 38 c28 21 76 43 107 49 32 7 83 30 114
52 31 22 67 40 81 40 13 0 37 16 53 35 21 25 31 28 39 10 6 -14 24 -25 41 -25
23 0 26 6 9 27 -25 29 84 85 261 135 56 16 85 32 71 41 -28 18 37 44 235 97
201 53 304 67 319 41 7 -11 0 -21 -17 -21 -31 0 -63 -36 -47 -52 5 -5 31 -1
58 9 63 24 129 -16 91 -56 -19 -21 -9 -23 56 -12 101 18 97 10 50 107 -64 131
-265 225 -428 200 -146 -22 -156 -85 -10 -73 89 8 107 -27 24 -45 -50 -12
-287 -79 -396 -112 -28 -9 -21 4 24 42 35 29 69 71 76 92 6 20 38 49 71 64 32
14 59 33 59 41 0 17 158 135 182 135 8 0 21 -18 28 -40 26 -80 50 -37 50 89 0
91 12 153 40 207 35 67 39 102 29 295 -18 359 -33 454 -103 669 -16 50 -28
122 -27 161 2 67 -62 212 -176 399 -108 177 -148 559 -51 478 21 -17 28 -17
28 2 0 14 -16 38 -35 54 -19 16 -23 23 -7 15 18 -10 24 -5 18 13 -5 15 -34 31
-65 35 l-55 6 9 -131 c10 -145 5 -153 -57 -86 -34 35 -41 63 -34 129 l8 85
-73 0 c-59 0 -71 -6 -61 -32z m-908 -209 c0 -9 -15 -25 -33 -36 -22 -12 -28
-31 -19 -54 14 -38 51 -18 59 33 6 41 33 78 55 78 11 0 15 -8 9 -18 -13 -22
83 -88 107 -73 24 15 44 -41 29 -80 -7 -17 -25 -26 -41 -20 -44 17 -107 -70
-83 -114 10 -19 11 -35 3 -35 -14 0 -18 -89 -9 -175 11 -101 46 -4 38 105
l-10 130 61 0 c34 0 77 -15 98 -33 20 -18 42 -28 49 -21 14 14 -28 74 -50 71
-38 -5 -41 9 -13 63 32 62 58 75 80 40 7 -11 21 -20 32 -20 11 0 15 8 9 18 -6
11 4 24 24 30 19 6 11 8 -19 4 -73 -8 -117 20 -76 49 24 17 20 19 -15 9 -36
-10 -45 -5 -45 29 0 47 72 25 92 -27 13 -34 108 -16 108 20 0 16 20 28 44 28
42 0 42 -1 6 -27 -35 -26 -32 -29 34 -51 39 -13 87 -41 107 -63 49 -54 72 -49
49 12 -33 86 -26 114 21 89 22 -12 35 -30 30 -39 -6 -9 4 -29 22 -44 26 -21
35 -22 42 -2 13 40 45 29 45 -15 0 -48 13 -50 54 -9 27 28 33 27 58 -5 25 -34
27 -33 27 9 1 25 -8 45 -19 45 -11 0 -20 18 -20 40 0 22 9 40 20 40 11 0 20
-19 20 -41 0 -23 8 -37 17 -31 10 6 13 -11 8 -39 -6 -29 0 -49 14 -49 13 0 17
11 9 25 -8 14 -7 18 3 9 9 -8 20 -40 24 -70 4 -30 19 -60 34 -68 28 -16 18
-116 -11 -116 -10 0 -18 -9 -18 -20 0 -11 14 -20 30 -20 17 0 30 -13 30 -30 0
-35 33 -40 45 -6 4 12 18 16 31 8 25 -15 13 -106 -19 -141 -27 -29 -20 -51 15
-51 18 0 28 11 22 26 -5 14 2 42 17 62 25 34 28 33 40 -21 6 -31 22 -78 35
-103 18 -37 16 -50 -7 -65 -19 -12 -20 -18 -5 -19 14 0 20 -12 15 -27 -6 -14
-2 -50 9 -78 15 -38 13 -55 -4 -61 -13 -5 1 -16 32 -24 52 -14 54 -17 24 -50
-35 -39 -3 -149 39 -133 13 5 23 -34 26 -100 4 -70 -2 -107 -17 -107 -13 0
-19 -20 -13 -49 5 -26 2 -60 -7 -74 -9 -15 1 -39 25 -60 45 -39 16 -157 -38
-157 -14 0 -25 -16 -25 -35 1 -28 4 -29 18 -7 14 22 21 20 37 -10 28 -54 10
-97 -27 -66 -19 15 -28 16 -28 2 0 -12 9 -27 20 -34 11 -7 20 -32 20 -56 -1
-36 -4 -38 -20 -14 -13 20 -19 22 -20 5 0 -14 -19 -25 -41 -25 -31 0 -39 -9
-30 -36 7 -21 -5 -54 -29 -79 -43 -46 4 -86 65 -55 14 7 7 -1 -15 -19 -22 -17
-69 -59 -105 -94 -66 -63 -138 -55 -112 13 13 36 -65 77 -153 80 -39 1 -82 9
-95 17 -13 8 -46 8 -74 1 -29 -7 -64 -2 -79 11 -29 23 -60 -1 -62 -49 -1 -11
-34 -18 -75 -16 -45 3 -75 -4 -75 -18 0 -12 -6 -17 -13 -10 -7 7 -3 25 9 39
17 20 12 33 -18 52 -36 22 -39 20 -34 -31 4 -41 -2 -54 -23 -50 -16 4 -41 -9
-55 -28 -19 -26 -26 -28 -26 -8 0 16 -29 58 -64 94 -35 36 -52 66 -37 66 21 0
21 6 1 30 -14 17 -42 30 -62 30 -37 0 -47 28 -38 110 4 38 2 38 -34 5 -45 -40
-86 -15 -86 54 -1 33 -4 36 -19 11 -22 -34 -7 -117 30 -160 90 -107 128 -240
68 -240 -28 0 -97 81 -98 115 -1 14 -9 41 -19 60 -51 102 -68 146 -57 157 6 6
-6 29 -27 50 -44 44 -49 98 -13 136 20 22 17 24 -18 14 -50 -16 -101 27 -119
99 -10 38 -26 49 -70 49 -32 0 -58 8 -58 19 0 10 -18 24 -40 31 -24 8 -35 22
-26 36 8 15 1 14 -19 -2 -34 -28 -75 16 -75 82 0 18 -20 29 -50 29 -98 0 -174
46 -164 100 5 29 -2 52 -18 59 -16 6 -28 22 -28 36 0 14 -19 38 -43 53 -43 29
-39 173 5 146 10 -6 18 -1 18 11 0 14 -16 17 -45 8 -97 -31 -135 -10 -95 52
17 25 23 25 37 3 38 -59 93 -17 93 71 0 45 6 78 15 73 8 -5 12 27 9 71 -4 44
1 75 10 70 9 -6 16 1 17 16 0 16 12 11 30 -13 16 -21 29 -30 29 -19 0 11 -13
38 -29 59 -38 50 -38 62 0 77 18 6 26 3 19 -8 -7 -11 -3 -20 9 -20 11 0 21 17
21 39 0 21 18 44 40 51 22 7 35 21 29 31 -6 11 7 19 30 19 22 0 41 -13 41 -29
0 -16 10 -35 23 -43 15 -9 18 -5 8 10 -24 39 6 122 44 122 28 1 29 4 7 18 -21
14 -18 21 15 31 24 8 43 25 43 40 0 29 103 56 149 39 15 -6 24 -23 18 -38 -9
-23 30 -28 73 -9 13 6 58 12 117 16 70 5 40 51 -37 58 -37 3 -73 14 -81 26 -8
13 -30 14 -61 3 -54 -20 -98 -11 -98 20 0 11 21 15 48 8 31 -8 65 2 100 30 28
22 52 31 52 19 0 -44 79 -21 91 28 12 45 69 53 69 10z m-1100 -889 c0 -67 -8
-90 -30 -90 -22 0 -28 17 -21 71 18 134 51 147 51 19z m208 -412 c27 -64 21
-158 -10 -158 -10 0 -18 16 -18 35 0 19 -13 59 -28 88 -20 39 -22 59 -6 75 31
31 33 29 62 -40z m446 -313 c104 -119 172 -316 116 -338 -16 -6 -30 -27 -30
-47 0 -20 -13 -41 -30 -47 -18 -7 -24 -24 -16 -45 8 -23 4 -31 -16 -24 -19 6
-30 48 -35 128 -4 65 -20 154 -36 198 -77 205 -54 290 47 175z m482 -1629
c-36 -35 -63 -76 -60 -90 3 -14 -16 -30 -43 -37 -37 -9 -46 -22 -38 -53 8 -30
3 -39 -17 -32 -15 5 -38 -4 -50 -20 -30 -41 -68 -13 -68 49 0 34 13 54 40 61
22 6 40 23 40 38 0 16 9 28 20 28 11 0 54 30 95 67 130 116 202 107 81 -11z"/>
<path d="M4572 6589 c-8 -21 -4 -26 13 -16 19 11 20 8 2 -14 -39 -49 20 -87
61 -41 26 29 28 40 8 56 -54 42 -72 45 -84 15z"/>
<path d="M5122 6435 c-1 -19 -10 -35 -20 -35 -38 0 -38 -81 0 -101 51 -27 67
13 41 104 -11 37 -20 51 -21 32z"/>
<path d="M4051 6425 c-22 -23 -10 -43 19 -32 18 7 30 0 30 -17 0 -15 17 -29
38 -30 58 -5 38 60 -23 76 -29 8 -58 9 -64 3z"/>
<path d="M4392 6308 c-17 -44 -15 -48 16 -36 15 6 34 1 41 -11 8 -12 23 -16
34 -9 12 7 6 27 -15 50 -42 46 -60 48 -76 6z"/>
<path d="M3760 6298 c0 -10 -13 -18 -29 -18 -16 0 -39 -18 -51 -40 -15 -28
-15 -40 0 -40 12 0 26 12 32 27 12 32 118 39 177 11 38 -19 38 -18 6 8 -19 16
-35 38 -35 49 0 11 -22 20 -50 20 -27 0 -50 -8 -50 -17z"/>
<path d="M4560 6285 c0 -22 14 -46 30 -52 17 -7 28 -23 25 -37 -3 -14 15 -28
40 -32 28 -4 45 3 44 20 0 28 -59 114 -59 87 0 -10 -18 -1 -40 19 -39 35 -40
35 -40 -5z"/>
<path d="M4888 6230 c-9 -37 -3 -64 19 -86 18 -18 33 -23 33 -10 0 13 18 18
41 11 39 -10 40 -7 14 57 -35 86 -89 100 -107 28z"/>
<path d="M4460 6182 c0 -35 24 -82 42 -82 10 0 18 23 18 50 0 31 -11 50 -30
50 -16 0 -30 -8 -30 -18z"/>
<path d="M5000 6103 c0 -11 10 -27 21 -34 14 -8 9 -22 -13 -38 -26 -19 -28
-29 -9 -40 35 -22 66 16 58 70 -7 45 -57 82 -57 42z"/>
<path d="M4140 6066 c-16 -5 -43 -14 -60 -21 -16 -6 -37 -12 -45 -13 -8 -1
-15 -9 -14 -18 0 -8 -14 -30 -31 -47 -18 -18 -27 -36 -21 -42 5 -6 28 11 50
37 22 26 40 37 40 23 1 -36 41 -31 41 5 0 33 72 57 143 47 34 -5 45 -18 40
-46 -5 -32 -1 -35 23 -15 23 19 34 18 54 -6 14 -16 38 -30 53 -30 19 0 12 17
-21 50 -28 28 -60 50 -71 50 -12 0 -21 8 -21 17 0 18 -112 25 -160 9z"/>
<path d="M4807 6002 c-1 -60 5 -76 27 -68 18 7 26 33 22 72 -9 90 -46 87 -49
-4z"/>
<path d="M4543 5988 c-24 -51 -23 -52 31 -39 69 18 70 18 54 58 -18 49 -58 40
-85 -19z"/>
<path d="M5220 5980 c27 -17 27 -19 0 -20 -27 -1 -27 -3 0 -22 20 -14 23 -24
7 -30 -31 -13 -9 -88 25 -88 18 0 28 23 28 66 0 66 -29 114 -69 114 -12 0 -7
-9 9 -20z"/>
<path d="M4249 5823 c6 -38 11 -76 11 -85 0 -10 9 -18 20 -18 31 0 23 88 -11
131 -30 37 -31 35 -20 -28z"/>
<path d="M4941 5761 c-25 -16 -25 -26 -1 -75 27 -54 28 -54 35 -11 12 73 -1
107 -34 86z"/>
<path d="M4540 5695 c0 -20 9 -32 20 -25 11 7 20 2 20 -10 0 -12 8 -17 18 -11
27 17 3 84 -29 84 -16 0 -29 -17 -29 -38z"/>
<path d="M3880 5641 c0 -21 9 -44 20 -51 11 -7 20 4 20 24 1 28 5 30 18 9 12
-19 21 -21 31 -5 19 32 -5 62 -50 62 -25 0 -39 -14 -39 -39z"/>
<path d="M4349 5618 c-19 -31 1 -42 64 -35 l56 7 -54 24 c-36 17 -58 18 -66 4z"/>
<path d="M4120 5586 c17 -6 50 -35 75 -64 36 -42 42 -44 32 -12 -21 64 -49 90
-94 88 -30 -1 -34 -5 -13 -12z"/>
<path d="M4660 5584 c0 -9 10 -26 23 -39 18 -18 17 -30 -1 -53 -20 -24 -18
-27 14 -19 41 11 50 62 19 102 -22 28 -55 33 -55 9z"/>
<path d="M3810 5520 c-7 -11 -5 -21 4 -22 9 0 32 -4 51 -8 20 -4 35 6 35 22 0
32 -71 38 -90 8z"/>
<path d="M5384 5483 c-14 -9 -25 -25 -23 -35 9 -46 -4 -66 -36 -55 -30 9 -30
7 -5 -11 22 -16 36 -14 53 9 19 26 24 24 33 -13 6 -23 20 -37 31 -30 24 15 6
92 -21 92 -11 0 -15 14 -9 30 13 35 12 35 -23 13z"/>
<path d="M4242 5450 c-1 -11 11 -45 27 -75 16 -30 22 -55 13 -55 -9 0 -17 -40
-19 -88 -3 -79 1 -87 37 -78 44 12 52 36 19 57 -12 7 -20 37 -17 66 2 29 -10
85 -27 123 -18 39 -32 61 -33 50z"/>
<path d="M3719 5308 c-45 -25 -41 -31 26 -36 14 -1 31 -10 38 -20 7 -9 23 -11
35 -3 65 40 -31 97 -99 59z"/>
<path d="M4821 5265 c0 -25 17 -63 40 -86 22 -22 36 -48 30 -57 -6 -9 11 -17
38 -17 42 0 45 5 25 37 -16 26 -27 30 -38 12 -10 -15 -15 -8 -16 21 0 25 -9
45 -21 45 -11 0 -28 20 -38 45 l-18 45 -2 -45z"/>
<path d="M5435 5231 c-37 -27 -48 -71 -17 -71 25 0 67 55 59 78 -4 11 -22 8
-42 -7z"/>
<path d="M5161 5005 c2 -44 54 -85 76 -59 16 20 16 33 -1 50 -27 27 -76 32
-75 9z"/>
<path d="M4669 4959 c-16 -26 27 -79 63 -79 16 0 28 13 28 29 0 18 -12 25 -30
18 -22 -8 -27 -2 -18 21 13 35 -22 45 -43 11z"/>
<path d="M4980 4841 c0 -79 20 -86 80 -26 45 45 46 47 6 27 -58 -29 -76 -28
-49 5 13 15 17 33 9 40 -28 28 -46 10 -46 -46z"/>
<path d="M4321 4855 c0 -23 99 -109 99 -87 0 6 -10 33 -23 61 -24 52 -77 71
-76 26z"/>
<path d="M4655 4802 c-34 -34 -34 -38 2 -79 44 -50 67 -56 50 -12 -7 17 3 47
21 67 31 34 31 38 1 50 -39 15 -32 17 -74 -26z"/>
<path d="M4460 4743 c0 -28 115 -107 127 -88 5 8 -1 30 -14 47 -28 39 -113 69
-113 41z"/>
<path d="M5000 4670 c-23 -28 -23 -36 1 -51 39 -24 68 9 45 50 -18 31 -21 31
-46 1z"/>
<path d="M5198 4645 c-2 -8 -2 -22 0 -30 1 -8 -9 -15 -23 -16 -14 0 -4 -18 22
-40 45 -37 96 -36 73 1 -6 9 -2 23 10 30 11 7 20 28 20 46 -1 27 -4 28 -18 7
-12 -19 -21 -21 -31 -5 -15 25 -50 30 -53 7z"/>
<path d="M5478 6928 c-2 -10 -1 -26 1 -36 2 -10 -8 -25 -21 -33 -30 -19 -9
-79 29 -79 19 0 26 21 22 72 -6 67 -26 117 -31 76z"/>
<path d="M5654 6862 c5 -53 -3 -88 -25 -110 -17 -18 -22 -32 -10 -32 11 0 21
-9 21 -20 0 -11 -13 -20 -30 -20 -16 0 -30 -10 -30 -21 0 -12 8 -16 18 -10 11
6 23 -4 28 -24 9 -33 9 -33 12 0 1 19 11 35 22 35 26 0 25 -32 -1 -81 -11 -22
-13 -39 -4 -39 9 0 15 -72 13 -161 -2 -136 3 -164 33 -180 61 -32 68 -95 16
-141 -26 -23 -36 -35 -22 -28 27 14 38 -7 54 -99 6 -34 0 -65 -14 -74 -17 -11
-13 -26 13 -55 20 -21 30 -49 23 -60 -7 -12 -3 -39 9 -62 16 -30 15 -40 -4
-40 -19 -1 -18 -5 3 -19 23 -14 24 -24 4 -48 -17 -20 -18 -34 -4 -42 26 -16
27 -130 3 -169 -12 -19 -8 -38 10 -57 31 -31 35 -68 37 -350 0 -107 -7 -195
-17 -195 -10 0 -13 -5 -7 -12 6 -6 4 -37 -5 -70 -13 -45 -11 -58 11 -58 16 0
29 -13 29 -30 0 -16 9 -30 20 -30 11 0 20 -9 20 -20 0 -29 -55 -25 -67 5 -6
15 -10 11 -11 -10 -1 -19 10 -35 26 -35 15 0 41 -20 58 -45 32 -47 34 94 6
365 -16 156 -52 545 -62 680 -5 72 -18 216 -29 320 -10 105 -25 285 -32 400
-8 116 -16 228 -18 250 -2 22 -11 137 -20 255 -14 184 -21 215 -50 215 -29 0
-34 -14 -27 -78z"/>
<path d="M5849 6764 c16 -224 26 -319 49 -498 10 -79 16 -176 15 -215 -2 -39
2 -71 9 -71 6 0 13 -83 15 -185 1 -102 6 -214 11 -250 5 -37 15 -185 23 -330
26 -501 34 -283 22 595 -14 1081 -18 1130 -106 1130 l-51 0 13 -176z"/>
<path d="M5550 6880 c-10 -16 -9 -30 3 -34 11 -4 16 -35 11 -70 -8 -55 -6 -59
21 -34 16 15 26 39 20 53 -5 14 1 25 13 25 12 0 22 9 22 20 0 11 -13 20 -28
20 -16 0 -32 11 -37 24 -5 17 -12 16 -25 -4z"/>
<path d="M5561 6571 c-18 -22 -19 -31 -3 -31 15 0 18 -19 9 -53 -8 -34 -6 -48
8 -40 26 16 43 104 25 133 -9 15 -22 12 -39 -9z"/>
<path d="M1716 6096 c24 -24 94 -28 99 -6 3 11 -22 20 -54 20 -32 0 -53 -6
-45 -14z"/>
<path d="M1900 4998 c-655 -7 -1350 -14 -1545 -15 l-355 -3 0 -143 0 -143 685
13 c377 7 1069 19 1539 26 l854 13 13 104 c7 58 10 117 6 132 -6 24 -194 26
-1197 16z"/>
<path d="M2390 4616 c-77 -8 -279 -14 -450 -13 -419 3 -386 9 -369 -66 12 -57
9 -62 -28 -52 -54 14 -58 -4 -39 -173 30 -269 54 -338 82 -232 6 22 3 35 -6
30 -32 -20 -46 36 -16 58 31 22 36 34 36 75 0 13 4 20 8 15 5 -4 24 -158 43
-341 l35 -333 152 2 c114 1 126 3 47 9 -58 4 -105 16 -105 27 0 11 9 15 20 8
11 -7 20 -3 20 9 0 11 -16 22 -35 24 -19 2 6 9 55 17 l90 14 -85 3 c-132 5
-101 43 35 43 66 0 120 -8 120 -19 0 -10 18 -21 41 -25 86 -13 44 -44 -61 -43
-106 0 -106 0 -15 -7 52 -5 95 -18 95 -30 0 -21 151 -12 173 10 5 6 -13 47
-42 92 -28 45 -51 94 -51 110 0 16 -10 32 -22 36 -13 4 -23 33 -23 64 0 32
-17 74 -37 95 -21 20 -38 55 -38 77 0 22 -9 40 -19 40 -12 0 -13 17 -2 45 9
25 28 43 41 40 12 -4 18 2 12 11 -12 20 126 173 141 157 11 -11 46 -293 106
-853 43 -405 106 -979 152 -1400 16 -148 35 -343 42 -433 l13 -163 -149 -14
c-82 -8 -171 -10 -198 -5 -27 5 1 11 61 13 61 3 146 11 190 19 l80 15 -85 42
c-47 23 -85 33 -85 22 0 -11 -12 -16 -28 -10 -15 6 -39 0 -52 -13 -20 -18 -23
-17 -11 3 10 19 0 23 -38 16 -28 -5 -47 -2 -41 8 6 9 2 23 -10 30 -11 7 -20 3
-20 -9 0 -11 -9 -21 -20 -21 -11 0 -20 13 -20 29 0 15 -16 33 -35 39 -19 6
-11 8 19 4 70 -8 99 11 75 49 -12 19 -18 21 -19 4 0 -14 -13 -25 -30 -25 -19
0 -30 19 -30 50 0 33 -11 50 -32 50 -22 0 -28 11 -20 33 7 17 2 45 -11 61 -26
31 -29 174 -5 234 9 25 7 34 -6 26 -13 -8 -26 20 -34 71 -8 48 -6 87 5 91 10
3 14 23 9 45 -7 26 -1 39 20 39 18 0 38 10 46 23 10 16 5 18 -14 6 -24 -14
-24 -11 -2 16 15 18 39 28 55 22 19 -8 25 2 19 33 -6 31 0 41 20 33 18 -7 24
-1 17 18 -6 16 -5 45 4 64 23 55 25 192 2 222 -28 36 -34 210 -7 227 29 18 74
173 52 180 -23 8 18 157 54 198 49 55 34 58 -252 58 -256 0 -280 -3 -280 -36
0 -56 77 -798 99 -954 81 -571 109 -1070 60 -1070 -31 0 -50 66 -21 76 18 6
15 19 -10 46 -27 30 -30 48 -14 83 12 25 14 64 5 88 -9 23 -22 122 -29 220 -7
97 -17 194 -23 214 -20 69 -28 143 -36 340 -5 108 -22 310 -39 450 -17 139
-35 325 -39 413 -11 256 -57 557 -90 589 -25 26 -27 19 -17 -60 30 -219 58
-563 48 -599 -6 -23 0 -40 13 -40 14 0 12 -7 -5 -18 -18 -12 -23 -35 -14 -72
8 -30 19 -110 26 -177 6 -68 19 -128 28 -134 9 -5 16 -28 16 -50 0 -103 17
-265 31 -287 9 -14 6 -35 -5 -46 -23 -23 -9 -227 19 -281 11 -20 14 -44 8 -54
-7 -10 -1 -25 11 -32 15 -9 18 -48 9 -112 -7 -54 -6 -109 1 -121 8 -13 17 -68
21 -124 3 -56 11 -167 17 -247 9 -111 6 -145 -14 -146 -49 -1 -247 -15 -796
-56 -302 -22 -642 -47 -755 -54 -160 -11 -205 -21 -205 -43 0 -25 28 -28 165
-17 91 6 421 30 735 52 740 51 888 63 901 70 6 3 78 8 160 10 145 4 210 25
188 61 -15 25 -144 23 -159 -2 -7 -11 -49 -20 -93 -20 -99 0 -96 44 5 62 37 7
55 14 38 16 -27 2 -27 5 0 22 44 29 140 25 140 -6 0 -27 118 -26 400 3 138 14
180 61 119 134 -13 16 -18 42 -12 59 7 16 3 30 -7 30 -10 0 -16 36 -12 80 4
44 -1 80 -10 80 -24 0 -3 85 27 103 20 13 19 16 -2 17 -16 0 -23 12 -15 31 6
17 3 26 -7 20 -10 -7 -24 -2 -31 9 -7 12 -2 19 11 15 13 -3 26 15 28 40 2 25
-3 45 -13 45 -10 0 -8 18 4 40 17 32 15 40 -9 40 -17 0 -31 14 -31 30 0 21 15
28 47 22 30 -5 46 1 46 20 0 15 -7 28 -16 28 -9 0 -17 -10 -17 -21 0 -12 -14
-8 -31 9 -23 24 -26 40 -10 70 15 28 15 44 -1 53 -12 7 -17 31 -12 51 6 21 2
33 -8 27 -10 -6 -18 3 -18 21 0 18 7 28 16 23 8 -6 15 7 15 28 0 22 -7 39 -15
39 -9 0 -16 10 -16 21 0 12 9 16 20 9 11 -7 14 1 8 19 -7 17 -26 31 -43 31
-23 0 -25 6 -6 28 18 23 16 31 -13 38 -30 8 -30 10 -3 12 47 3 61 56 23 93
-22 22 -25 38 -10 53 14 14 15 38 2 71 -15 41 -13 47 12 38 16 -6 30 -3 30 8
0 10 -19 19 -41 19 -28 0 -40 11 -36 35 3 19 -1 46 -10 60 -10 17 -3 25 21 25
28 1 30 4 8 18 -19 13 -23 38 -14 90 9 47 6 72 -8 72 -12 0 -17 -9 -10 -20 7
-11 2 -20 -10 -20 -27 0 -19 83 10 107 13 10 12 19 -4 26 -13 5 -19 22 -13 38
6 16 20 23 31 16 11 -6 5 12 -14 41 -34 51 -34 52 2 39 35 -13 36 -11 7 25
-33 40 -35 57 -12 109 16 35 -33 146 -54 125 -7 -7 -13 -3 -13 8 0 23 82 51
99 34 5 -6 -3 -19 -20 -29 -24 -16 -24 -18 5 -19 19 0 41 13 51 29 18 34 196
54 248 28 21 -10 41 -6 57 13 14 16 32 25 41 19 9 -5 22 0 29 11 7 11 21 15
32 9 26 -16 101 10 88 31 -6 10 0 24 12 31 12 8 30 2 40 -13 10 -16 18 -20 18
-11 0 10 16 6 35 -9 29 -23 29 -20 -2 17 -38 43 -38 44 8 35 25 -5 52 -19 60
-31 7 -12 21 -21 31 -19 9 2 20 -7 24 -19 4 -11 -6 -16 -22 -10 -17 7 -36 2
-43 -10 -8 -12 3 -21 24 -21 64 0 112 -48 96 -97 -17 -52 -47 -55 -84 -8 -24
30 -25 28 -4 -20 13 -30 30 -55 39 -55 8 0 33 25 55 55 40 53 41 53 29 7 -9
-34 -5 -44 11 -34 14 9 24 -1 26 -27 3 -58 5 -65 34 -116 14 -25 20 -54 14
-63 -6 -10 8 -22 31 -28 23 -6 37 -20 30 -31 -18 -30 44 -83 98 -83 l47 0 -59
120 c-32 66 -58 125 -58 129 0 5 -50 117 -110 249 -61 133 -120 286 -132 342
-12 55 -32 101 -45 102 -12 1 -192 0 -398 -1 -250 -2 -375 4 -375 18 0 12 -18
21 -40 21 -68 0 -44 40 25 41 52 2 57 5 26 17 -36 14 -34 17 16 26 41 8 53 4
45 -17 -9 -22 22 -26 154 -24 158 3 160 4 54 17 -132 16 -112 20 155 33 136 6
205 2 205 -12 0 -12 -47 -21 -110 -21 -81 0 -110 -7 -110 -28 0 -23 34 -27
175 -21 96 5 182 9 190 9 76 1 -10 100 -87 100 -42 0 -52 50 -13 68 14 6 -101
9 -255 7 -154 -2 -289 1 -300 6 -11 6 -83 4 -160 -5z m650 -54 c0 -20 -135
-26 -187 -9 -42 14 -42 14 6 26 57 14 181 3 181 -17z m-600 -2 c0 -11 -40 -20
-88 -20 -49 0 -103 -5 -120 -12 -21 -8 -32 -1 -32 20 0 26 23 32 120 32 67 0
120 -9 120 -20z m340 -1 c0 -13 -47 -19 -120 -17 -66 3 -120 12 -120 21 0 9
54 17 120 17 71 0 120 -9 120 -21z m-1010 -19 c-7 -11 -39 -20 -71 -20 -33 0
-59 9 -59 20 0 11 32 20 71 20 43 0 66 -8 59 -20z m270 -60 c64 -64 48 -80
-82 -80 -120 0 -122 -1 -113 -50 9 -48 5 -50 -90 -50 -87 0 -97 4 -75 30 20
24 20 30 -3 30 -21 1 -21 5 3 20 24 16 21 19 -16 20 -99 0 -15 40 92 43 l114
4 -130 12 c-160 15 -121 38 80 47 83 3 157 8 165 10 8 2 33 -14 55 -36z m303
-7 c-41 -18 -45 -30 -36 -112 36 -308 38 -341 16 -341 -14 0 -23 38 -24 95 -1
182 -24 335 -52 351 -47 28 -13 47 67 37 71 -8 73 -10 29 -30z m497 -188 c0
-19 98 -65 140 -65 18 0 41 -8 51 -19 10 -10 51 -22 89 -27 39 -5 6 -8 -73 -6
-107 2 -140 -4 -132 -23 7 -18 -17 -25 -83 -25 -51 0 -92 -9 -92 -20 0 -12
-62 -20 -146 -20 l-147 0 1 80 c0 66 7 80 41 82 23 0 30 6 15 12 -82 33 -119
-10 -102 -118 15 -94 11 -137 -10 -114 -4 4 -12 64 -17 132 l-9 124 82 7 c159
15 392 15 392 0z m-980 -25 c0 -11 -13 -20 -30 -20 -37 0 -31 -41 10 -74 25
-21 17 -25 -46 -25 -43 -1 -71 7 -65 18 7 10 -4 28 -24 39 -21 13 -25 21 -9
21 15 1 21 10 14 21 -7 12 -21 15 -31 9 -11 -6 -19 -2 -19 10 0 12 43 21 100
21 55 0 100 -9 100 -20z m77 -243 c61 -10 55 -47 -7 -45 -145 6 -197 12 -175
21 14 6 25 19 25 30 0 11 -9 14 -20 7 -11 -7 -20 -3 -20 7 0 30 107 38 131 11
11 -13 41 -27 66 -31z m-57 -77 c0 -11 -31 -20 -70 -20 -38 0 -70 9 -70 20 0
11 32 20 70 20 39 0 70 -9 70 -20z m135 -104 c-5 -15 -41 -24 -86 -24 -66 2
-69 1 -14 -6 106 -14 74 -46 -45 -46 -60 0 -110 4 -110 8 0 5 -5 22 -12 39
-13 34 29 46 179 50 68 2 94 -4 88 -21z m-85 -336 c-60 -15 -60 -15 15 -18
128 -4 83 -42 -50 -42 -89 1 -116 6 -95 20 27 18 27 22 0 40 -21 14 1 19 80
17 92 -1 100 -4 50 -17z m100 -100 c-7 -11 -50 -21 -96 -23 l-84 -3 70 -12
c123 -21 105 -82 -24 -80 -58 0 -95 6 -81 11 14 6 25 19 25 30 0 11 -8 14 -19
8 -10 -6 -24 -3 -31 9 -7 11 4 21 24 22 33 2 33 3 -2 12 -30 8 -32 14 -10 28
39 25 244 23 228 -2z m85 -155 c6 -18 -21 -25 -95 -25 l-103 0 14 -104 c13
-104 30 -264 34 -311 1 -14 14 -25 28 -25 46 0 29 -40 -18 -43 l-45 -2 45 -9
c96 -19 58 -106 -45 -106 -85 0 -120 25 -65 47 14 5 7 11 -15 12 -33 1 -35 5
-10 21 27 18 27 22 0 40 -19 12 -21 19 -6 20 14 0 20 14 13 30 -8 21 3 31 36
33 l47 2 -47 9 c-30 6 -42 19 -35 38 6 15 0 29 -14 30 -18 1 -18 4 1 11 14 6
25 19 25 30 0 11 -9 14 -20 7 -11 -7 -20 -3 -20 9 0 11 11 22 25 23 20 1 20 3
0 11 -36 15 -31 43 10 53 24 6 19 10 -15 12 -41 2 -45 6 -20 24 25 17 25 23 3
32 -23 9 -23 14 0 28 20 13 20 17 2 18 -45 0 -26 40 20 43 l45 2 -45 9 c-83
16 -46 39 70 44 63 2 118 9 124 14 16 17 67 -1 76 -27z"/>
<path d="M345 4185 l-345 -6 0 -73 0 -72 355 10 c197 6 306 4 245 -5 -60 -8
-222 -17 -360 -19 -148 -2 -230 -10 -200 -19 28 -8 80 -10 118 -5 52 8 65 4
58 -18 -5 -15 -36 -29 -68 -30 -135 -6 -148 -9 -148 -39 0 -27 73 -29 660 -17
607 13 660 12 660 -19 0 -23 17 -33 57 -33 l57 0 -4 135 c-1 74 -4 155 -6 180
l-4 45 -365 -4 c-201 -3 -520 -8 -710 -11z m675 -55 c0 -49 -2 -50 -170 -50
-168 0 -170 1 -170 50 0 49 2 50 170 50 168 0 170 -1 170 -50z m125 2 c6 -20
-64 -35 -89 -19 -9 5 -12 17 -7 26 13 21 90 16 96 -7z m155 7 c0 -11 -18 -19
-40 -19 -22 0 -47 -1 -54 -1 -8 -1 -18 6 -21 16 -4 11 21 20 54 21 34 1 61 -7
61 -17z m-635 -173 c-36 -5 -94 -5 -130 0 -36 4 -6 8 65 8 72 0 101 -4 65 -8z"/>
<path d="M795 4146 c36 -5 90 -5 120 0 30 4 1 8 -65 8 -66 0 -91 -4 -55 -8z"/>
<path d="M5960 4005 c0 -14 -17 -25 -38 -25 -20 0 -48 -13 -61 -29 -25 -29
-80 -20 -106 18 -9 13 -15 10 -15 -9 0 -18 -20 -31 -50 -33 -28 -1 -50 4 -50
12 0 9 -22 11 -50 6 -27 -5 -50 -17 -50 -25 0 -21 159 -59 192 -46 16 6 28 2
28 -8 0 -15 108 -20 140 -6 6 2 30 3 55 1 37 -3 45 6 45 53 -1 55 -39 144 -40
91z"/>
<path d="M5400 3879 c0 -12 -8 -16 -19 -10 -10 6 -23 3 -30 -7 -6 -10 21 -18
59 -18 39 0 70 9 70 19 0 11 -9 14 -20 7 -11 -7 -20 -3 -20 9 0 11 -9 21 -20
21 -11 0 -20 -10 -20 -21z"/>
<path d="M3939 3808 c-19 -24 -20 -31 -3 -20 19 11 23 3 13 -33 -8 -36 -3 -48
20 -48 33 0 38 38 14 100 -14 35 -16 35 -44 1z"/>
<path d="M126 3805 c52 -4 133 -4 180 0 46 5 3 8 -96 8 -99 0 -137 -4 -84 -8z"/>
<path d="M870 3745 c-288 -7 -315 -13 -248 -61 l48 -34 -70 -12 c-38 -6 134
-7 383 -2 l452 10 15 -200 c7 -110 22 -213 32 -228 25 -40 23 11 -12 293 -16
131 -30 241 -30 244 0 3 -74 3 -165 1 -91 -3 -273 -7 -405 -11z"/>
<path d="M382 3722 c-15 -10 -20 -28 -12 -42 8 -14 3 -33 -12 -43 -20 -14 -15
-17 21 -13 33 4 53 23 63 61 15 57 -6 71 -60 37z"/>
<path d="M0 3660 c0 -33 8 -60 18 -60 9 0 21 27 26 60 6 41 1 60 -17 60 -17 0
-27 -23 -27 -60z"/>
<path d="M5780 3359 c-170 -40 -180 -44 -180 -85 0 -33 5 -37 24 -18 13 13 39
24 58 24 19 0 38 8 41 18 6 14 133 34 262 41 8 1 15 10 15 20 0 20 -134 19
-220 0z"/>
<path d="M5480 3241 c0 -11 -11 -16 -25 -11 -30 12 -89 -23 -71 -41 18 -18
156 35 144 55 -14 22 -48 20 -48 -3z"/>
<path d="M731 3145 c-8 -21 41 -23 244 -13 288 14 345 28 123 29 -81 0 -195 3
-253 5 -70 3 -108 -4 -114 -21z"/>
<path d="M5240 3135 c0 -30 7 -33 40 -15 22 12 40 30 40 39 0 10 -18 17 -40
16 -24 -2 -40 -18 -40 -40z"/>
<path d="M434 3118 c16 -16 59 -16 149 -3 l127 20 -149 2 c-108 2 -143 -3
-127 -19z"/>
<path d="M146 3105 c52 -4 133 -4 180 0 46 5 3 8 -96 8 -99 0 -137 -4 -84 -8z"/>
<path d="M5188 3093 c-7 -18 -28 -33 -47 -33 -45 0 -179 -102 -180 -136 -1
-20 7 -19 30 5 18 17 41 31 52 31 10 0 14 8 8 19 -14 22 12 40 73 52 51 10
110 62 90 81 -7 8 -19 -1 -26 -19z"/>
<path d="M5960 3029 c0 -17 -7 -27 -16 -21 -30 18 -167 -41 -216 -94 -52 -57
-63 -85 -23 -61 20 12 20 8 0 -16 -18 -23 -19 -35 -1 -53 19 -19 18 -24 -1
-24 -13 0 7 -32 46 -71 39 -39 71 -84 71 -100 0 -18 19 -29 49 -29 38 0 47 -8
37 -32 -9 -26 -3 -30 29 -19 30 9 44 3 51 -23 7 -27 10 -25 12 10 1 28 -35 92
-89 159 -178 219 -176 246 26 279 63 11 104 126 45 126 -11 0 -20 -14 -20 -31z"/>
<path d="M3754 2985 c-5 -8 17 -36 49 -62 31 -25 57 -36 57 -25 0 12 -10 22
-21 22 -12 0 -16 9 -9 20 7 11 -2 20 -20 20 -18 0 -27 9 -20 20 7 11 3 20 -8
20 -11 0 -24 -7 -28 -15z"/>
<path d="M4781 2819 l-69 -59 53 0 c40 0 51 8 42 31 -8 21 2 35 30 43 24 6 43
19 43 28 0 31 -27 19 -99 -43z"/>
<path d="M4655 2705 c-30 -19 -55 -41 -55 -50 0 -8 -13 -15 -29 -15 -16 0 -35
-10 -43 -23 -27 -45 94 3 144 57 70 76 67 83 -17 31z"/>
<path d="M5125 2569 c-3 -46 5 -69 30 -78 18 -7 27 -7 19 1 -8 8 -1 35 15 59
26 40 25 45 -15 64 -40 18 -44 14 -49 -46z"/>
<path d="M1070 2600 c-121 -8 -283 -16 -359 -17 -76 -2 -130 -10 -120 -19 10
-9 136 -10 279 -2 143 8 359 14 480 13 l220 0 -170 -17 c-156 -15 -1248 -78
-1354 -78 -36 0 -46 -11 -46 -53 l0 -53 175 13 c96 6 400 22 675 33 275 12
557 27 626 33 l126 10 -6 74 -6 73 -150 2 c-82 1 -249 -5 -370 -12z m250 -111
c0 -19 -14 -29 -33 -25 -51 9 -57 56 -9 56 25 0 42 -13 42 -31z"/>
<path d="M247 2562 c-123 -7 -231 -20 -240 -30 -10 -10 54 -12 153 -5 94 7
217 13 275 13 58 0 105 9 105 20 0 11 -16 18 -35 17 -19 -2 -136 -9 -258 -15z"/>
<path d="M4446 2567 c-35 -14 10 -127 51 -126 29 0 30 3 2 25 -33 26 -37 51
-13 89 17 25 3 30 -40 12z"/>
<path d="M5078 2422 c22 -14 20 -20 -10 -27 -36 -8 -36 -10 -2 -25 49 -21 97
24 54 51 -17 10 -39 18 -50 18 -11 0 -7 -8 8 -17z"/>
<path d="M5022 2289 c-2 -68 4 -80 38 -80 22 0 40 7 40 15 0 9 -13 16 -30 16
-34 0 -40 31 -10 50 11 7 20 3 20 -9 0 -11 9 -21 19 -21 11 0 15 14 8 30 -6
17 -23 30 -37 30 -15 0 -31 11 -37 25 -5 14 -11 -11 -11 -56z"/>
<path d="M5053 2167 c-20 -20 -15 -133 7 -167 14 -21 19 0 20 75 0 106 -3 116
-27 92z"/>
<path d="M5003 1929 c-29 -65 -29 -123 0 -141 16 -10 20 -1 12 28 -7 27 0 46
21 53 22 9 25 18 9 34 -12 12 -17 34 -11 49 18 49 -7 30 -31 -23z"/>
<path d="M4940 1719 c-20 -12 -22 -18 -5 -19 14 0 26 -25 27 -55 l1 -55 18 60
c20 67 3 97 -41 69z"/>
<path d="M4682 1541 c-35 -61 -45 -201 -14 -201 12 0 9 -9 -8 -20 -43 -27 -53
-425 -11 -459 16 -14 38 -19 49 -12 23 14 21 91 -3 91 -9 0 -10 23 -3 50 8 33
4 50 -12 50 -19 0 -19 7 -1 28 16 20 16 33 2 41 -14 9 -15 25 -1 51 11 21 20
72 20 115 0 42 7 86 15 96 9 10 11 64 5 119 -10 97 -11 99 -38 51z"/>
<path d="M4944 1456 c-17 -17 -17 -30 -1 -50 17 -21 16 -25 -5 -20 -15 4 -21
4 -12 -1 9 -5 -7 -29 -35 -53 -48 -40 -48 -44 -11 -46 23 -2 40 9 40 26 0 16
12 34 27 40 15 5 28 37 29 69 2 67 1 68 -32 35z"/>
<path d="M2375 1448 c-14 -14 -69 -24 -140 -26 -30 -1 -55 -11 -55 -23 0 -12
37 -19 85 -16 84 4 155 33 155 62 0 18 -28 20 -45 3z"/>
<path d="M2060 1158 c-115 -9 -588 -44 -1050 -78 -462 -33 -878 -65 -925 -71
l-85 -11 0 -129 c0 -125 2 -129 51 -129 48 0 1513 113 2148 166 l289 24 23 90
c14 50 31 106 39 125 16 40 -103 43 -490 13z"/>
<path d="M5461 1136 c0 -25 14 -64 30 -85 28 -37 29 -36 25 20 -6 76 -56 135
-55 65z"/>
<path d="M5121 1063 c-1 -16 -14 -22 -30 -16 -17 6 -36 1 -43 -11 -9 -13 -5
-17 9 -8 13 8 23 5 23 -7 0 -11 -16 -21 -36 -21 -20 0 -56 -22 -80 -50 -24
-27 -59 -50 -78 -50 -29 0 -29 -4 5 -29 27 -21 31 -30 11 -30 -16 -1 -23 -6
-17 -13 19 -19 115 54 115 88 0 24 6 26 23 9 17 -17 31 -12 57 20 19 24 65 55
102 69 38 14 50 23 28 20 -22 -3 -51 8 -64 25 -19 24 -25 25 -25 4z"/>
<path d="M4620 752 c0 -16 -10 -55 -23 -86 -13 -31 -26 -65 -29 -76 -3 -11
-12 -40 -19 -65 -9 -28 -5 -45 9 -45 12 0 22 14 22 30 0 17 11 28 25 25 15 -3
22 11 18 35 -15 88 -7 135 20 118 14 -8 18 -5 10 7 -7 12 -5 25 5 28 10 4 5
19 -10 33 -23 21 -28 20 -28 -4z"/>
<path d="M1521 613 c-69 -69 13 -211 119 -209 92 1 142 55 99 107 -13 16 -19
51 -14 78 10 53 -156 72 -204 24z"/>
<path d="M4513 427 c-7 -8 -13 -35 -13 -60 0 -26 -9 -47 -20 -47 -11 0 -20 -9
-20 -20 0 -23 59 -28 61 -5 1 8 6 44 10 80 9 66 6 75 -18 52z"/>
<path d="M765 385 c-19 -52 -62 -89 -86 -74 -14 9 -14 21 2 41 13 15 15 28 5
28 -11 0 -30 -21 -44 -47 -14 -25 -36 -46 -49 -46 -13 0 -48 -7 -78 -14 -35
-9 -55 -6 -55 8 0 12 8 17 17 11 9 -6 16 3 16 19 0 21 -6 23 -26 6 -15 -12
-27 -34 -27 -49 0 -16 -10 -28 -22 -28 -12 0 -17 14 -11 30 7 17 3 30 -8 30
-10 0 -19 -10 -19 -21 0 -12 -9 -16 -20 -9 -11 7 -20 4 -20 -7 0 -11 -36 -16
-79 -12 -62 6 -77 2 -69 -20 8 -20 -14 -35 -74 -52 -74 -19 -81 -26 -50 -43
66 -37 489 -3 662 53 100 32 290 14 290 -29 0 -87 326 -197 347 -117 10 38 15
40 44 16 29 -24 37 -23 59 7 22 31 27 31 37 5 7 -19 1 -31 -18 -31 -16 0 -29
-9 -29 -21 0 -13 13 -14 35 -2 19 10 51 15 72 12 23 -4 32 3 26 21 -6 15 3 38
19 51 24 20 27 19 17 -7 -10 -24 -2 -29 33 -19 38 10 43 5 33 -32 -6 -24 -2
-43 9 -43 13 0 17 28 10 70 -6 38 -3 70 7 70 11 0 19 -11 19 -24 0 -14 10 -10
25 9 52 68 102 51 120 -40 24 -116 139 -127 121 -12 -15 88 3 126 51 114 28
-8 43 -35 52 -99 17 -113 57 -114 113 -3 23 47 57 101 74 120 52 60 25 60
-618 6 -645 -54 -657 -54 -658 24 0 14 -10 25 -21 25 -12 0 -16 8 -10 19 6 10
2 24 -11 32 -16 10 -14 19 5 31 18 12 19 17 3 18 -13 0 -29 -9 -36 -20 -8 -13
-25 -13 -51 1 -22 11 -39 13 -39 5 0 -9 -9 -2 -20 14 -16 25 -19 24 -20 -6 0
-20 -8 -31 -19 -25 -10 7 -15 30 -11 51 10 49 -7 52 -25 5z"/>
<path d="M884 149 c3 -17 13 -31 21 -30 8 1 35 1 60 2 44 0 44 1 6 30 -51 38
-96 37 -87 -2z"/>
<path d="M650 115 c-54 -10 -104 -24 -110 -32 -35 -48 -294 -67 -400 -29 -71
26 -140 16 -140 -19 0 -32 29 -35 319 -35 279 0 318 4 308 31 -10 25 2 29 65
22 42 -5 80 -18 84 -31 9 -27 64 -29 64 -2 0 11 20 20 44 20 40 0 41 3 14 30
-47 48 -139 64 -248 45z"/>
</g>
</svg>
