<?xml version="1.0" encoding="utf-8"?>
<svg width="1537px" height="632px" viewBox="0 0 1537 632" version="1.1" xmlns:xlink="http://www.w3.org/1999/xlink" xmlns="http://www.w3.org/2000/svg">
  <desc>Created with Lunacy</desc>
  <defs>
    <rect width="1536.512" height="632" id="artboard_1" />
    <clipPath id="clip_1">
      <use xlink:href="#artboard_1" clip-rule="evenodd" />
    </clipPath>
  </defs>
  <g id="postgresql_vs_mysql" clip-path="url(#clip_1)">
    <use xlink:href="#artboard_1" stroke="none" fill="#FFFFFF" />
    <g id="Vs." transform="translate(726.8835 303.6696)">
      <path d="M88.1719 45.5859L50.8359 146.414L37.8281 146.414L1.26563 45.5859L14.4141 45.5859L42.3281 125.531Q43.6641 129.398 44.3672 134.461L44.6484 134.461Q45.2109 130.242 46.9688 125.391L75.4453 45.5859L88.1719 45.5859ZM96.75 143.813L96.75 131.438Q106.172 138.398 117.492 138.398Q132.68 138.398 132.68 128.273Q132.68 125.391 131.379 123.387Q130.078 121.383 127.863 119.836Q125.648 118.289 122.66 117.059Q119.672 115.828 116.227 114.492Q111.445 112.594 107.824 110.66Q104.203 108.727 101.777 106.301Q99.3516 103.875 98.1211 100.781Q96.8906 97.6875 96.8906 93.5391Q96.8906 88.4766 99.2109 84.5742Q101.531 80.6719 105.398 78.0352Q109.266 75.3984 114.223 74.0625Q119.18 72.7266 124.453 72.7266Q133.805 72.7266 141.188 75.9609L141.188 87.6328Q133.242 82.4297 122.906 82.4297Q119.672 82.4297 117.07 83.168Q114.469 83.9063 112.605 85.2422Q110.742 86.5781 109.723 88.4414Q108.703 90.3047 108.703 92.5547Q108.703 95.3672 109.723 97.2656Q110.742 99.1641 112.711 100.641Q114.68 102.117 117.492 103.313Q120.305 104.508 123.891 105.914Q128.672 107.742 132.469 109.676Q136.266 111.609 138.938 114.035Q141.609 116.461 143.051 119.625Q144.492 122.789 144.492 127.148Q144.492 132.492 142.137 136.43Q139.781 140.367 135.844 142.969Q131.906 145.57 126.773 146.836Q121.641 148.102 116.016 148.102Q104.906 148.102 96.75 143.813ZM160.699 145.641Q162.984 147.961 166.219 147.961Q169.523 147.961 171.844 145.641Q174.164 143.32 174.164 140.086Q174.164 136.852 171.844 134.496Q169.523 132.141 166.219 132.141Q162.984 132.141 160.699 134.496Q158.414 136.852 158.414 140.086Q158.414 143.32 160.699 145.641Z" />
    </g>
    <g id="Postgresql" transform="translate(-15.11646 8.669617)">
      <g id="Postgresql_elephant" transform="translate(14.5 0)">
        <g id="orginal" />
        <g id="Layer_x0020_3">
          <path d="M417.928 413.819C421.826 381.347 420.658 376.585 444.845 381.845L450.985 382.384C469.583 383.23 493.912 379.393 508.204 372.753C538.972 358.477 557.216 334.641 526.878 340.904C457.675 355.18 452.917 331.747 452.917 331.747C525.992 223.323 556.539 85.6889 530.172 51.9989C458.254 -39.8953 333.766 3.55942 331.683 4.68765L331.02 4.81011C317.346 1.97302 302.044 0.277929 284.853 0C253.537 -0.514583 229.774 8.20993 211.748 21.8821C211.748 21.8821 -10.3316 -69.6117 0 136.945C2.1973 180.885 62.9841 469.435 135.484 382.28C161.982 350.41 187.59 323.463 187.59 323.463C200.306 331.911 215.53 336.22 231.498 334.672L232.732 333.62C232.345 337.577 232.516 341.447 233.226 346.029C214.552 366.897 220.039 370.561 182.699 378.247C144.921 386.033 167.116 399.895 181.602 403.518C199.17 407.911 239.809 414.134 267.276 375.692L266.182 380.078C273.509 385.939 273.014 422.206 274.053 448.119C275.093 474.032 276.828 498.213 282.11 512.47C287.392 526.724 293.625 563.447 342.699 552.93C383.712 544.14 415.07 531.49 417.928 413.818" transform="translate(26.76656 32.28109)" id="Shape" fill="#000000" stroke="#000000" stroke-width="37.3953" />
          <path d="M526.892 340.904C457.682 355.18 452.924 331.747 452.924 331.747C525.999 223.316 556.546 85.6793 530.184 51.9934C458.266 -39.8952 333.773 3.56217 331.695 4.6904L331.027 4.8101C317.353 1.97165 302.051 0.280682 284.852 0C253.535 -0.513205 229.781 8.20992 211.755 21.8794C211.755 21.8794 -10.3288 -69.6103 0 136.945C2.1973 180.888 62.9827 469.438 135.485 382.282C161.985 350.413 187.589 323.466 187.589 323.466C200.306 331.914 215.53 336.223 231.491 334.675L232.73 333.623C232.345 337.58 232.521 341.45 233.227 346.032C214.549 366.9 220.038 370.564 182.7 378.249C144.92 386.036 167.114 399.898 181.605 403.52C199.172 407.914 239.815 414.137 267.276 375.694L266.181 380.081C273.499 385.942 278.638 418.208 277.777 447.457C276.916 476.707 276.341 496.788 282.107 512.473C287.873 528.158 293.62 563.449 342.704 552.932C383.718 544.143 404.971 521.367 407.928 483.374C410.026 456.364 414.774 460.357 415.074 436.209L418.883 424.777C423.275 388.163 419.58 376.351 444.849 381.845L450.989 382.384C469.587 383.23 493.928 379.393 508.214 372.753C538.976 358.477 557.22 334.641 526.889 340.904L526.892 340.904Z" transform="translate(26.75964 32.27834)" id="Shape" fill="#336791" stroke="none" />
          <path d="M0 0C-1.90561 68.1287 0.478821 136.732 7.14501 153.405C13.8154 170.078 28.0902 202.508 77.178 191.992C118.188 183.2 133.11 166.186 139.584 128.631C144.353 101 153.547 24.2639 154.726 8.54155" transform="translate(297.0075 394.1698)" id="Shape" fill="none" stroke="#FFFFFF" stroke-width="12.4651" />
          <path d="M211.904 0C211.904 0 -10.3316 -90.8308 0 115.725C2.1973 159.668 62.9869 448.228 135.488 361.068C161.982 329.194 185.943 304.196 185.943 304.196" transform="translate(26.2685 52.63593)" id="Shape" fill="none" stroke="#FFFFFF" stroke-width="12.4651" />
          <path d="M0 0C-7.69259 2.41194 123.621 -48.0035 198.247 47.354C224.608 81.0414 194.061 218.679 120.987 327.113" transform="translate(358.2115 36.05788)" id="Shape" fill="none" stroke="#FFFFFF" stroke-width="12.4651" />
          <path d="M297.672 331.755C297.672 331.755 302.434 355.194 371.646 340.908C401.97 334.645 383.72 358.484 352.965 372.767C327.724 384.482 271.136 387.484 270.211 371.296C267.832 329.531 299.995 342.22 297.674 331.755C295.575 322.33 281.192 313.08 271.678 290.013C263.371 269.879 157.76 115.483 300.966 138.413C306.212 137.328 263.616 2.1973 129.595 0C-4.39598 -2.1973 0 164.779 0 164.779" transform="translate(181.5253 31.41565)" id="Shape" fill="none" stroke="#FFFFFF" stroke-width="12.4651" />
          <path d="M51.6235 5.4954C32.943 26.3624 38.4369 30.0265 1.09658 37.715C-36.684 45.5027 -14.4868 59.3622 0 62.9836C17.5674 67.3796 58.2099 73.6028 85.6713 35.1503C94.034 23.4427 85.6218 4.76201 74.1345 0C68.5841 -2.29913 61.1625 -5.18031 51.6235 5.49536L51.6235 5.4954Z" transform="translate(207.8748 371.9574)" id="Shape" fill="none" stroke="#FFFFFF" stroke-width="12.4651" />
          <path d="M78.2195 180.894C76.3373 168.625 82.2509 154.025 88.5882 136.945C98.1122 111.318 120.087 85.6863 102.508 4.39321C89.4055 -56.1858 1.52309 -8.21406 1.46808 0C1.41442 8.21131 5.44305 41.6344 0 80.5556C-7.10236 131.344 32.317 174.298 77.7091 169.903" transform="translate(180.0556 196.1948)" id="Shape" fill="none" stroke="#FFFFFF" stroke-width="12.4651" />
          <path d="M0 3.25687C-0.396253 6.06242 5.13626 13.5489 12.3501 14.5492C19.5516 15.5537 25.7157 9.70316 26.1064 6.90036C26.4972 4.09481 20.9716 1.00443 13.7549 0C6.5493 -1.00582 0.382502 0.458179 0.00136465 3.25687L0 3.25687Z" transform="translate(237.3643 191.7066)" id="Shape" fill="#FFFFFF" stroke="#FFFFFF" stroke-width="12.4651" />
          <path d="M26.1157 3.25682C26.5064 6.06233 20.9809 13.5487 13.7657 14.549C6.55884 15.5534 0.394903 9.70302 0 6.90026C-0.381131 4.09475 5.1458 1.00442 12.3541 0C19.5624 -1.00442 25.7249 0.458172 26.1157 3.25818L26.1157 3.25682Z" transform="translate(430.5986 185.9871)" id="Shape" fill="#FFFFFF" stroke="#FFFFFF" stroke-width="12.4651" />
          <path d="M15.3807 0C16.5681 22.006 10.6409 36.995 9.89379 60.421C8.78762 94.4716 26.1275 133.445 0 172.467" transform="translate(467.1104 169.8286)" id="Shape" fill="none" stroke="#FFFFFF" stroke-width="12.4651" />
        </g>
      </g>
    </g>
    <g id="mysql" transform="translate(941.7759 57.47928)">
      <g id="Group">
        <path d="M535.879 423.35C504.089 422.557 479.427 425.737 458.757 434.487C452.805 436.883 443.254 436.883 442.47 444.43C445.651 447.593 446.034 452.769 448.823 457.153C453.589 465.109 461.947 475.827 469.493 481.396C477.85 487.766 486.199 494.119 494.93 499.687C510.433 509.221 527.922 514.789 543.024 524.331C551.773 529.9 560.514 537.054 569.263 543.024C573.629 546.204 576.418 551.381 581.986 553.359L581.986 552.156C579.206 548.592 578.404 543.425 575.634 539.433C571.651 535.468 567.677 531.878 563.695 527.913C552.174 512.41 537.857 498.885 522.345 487.766C509.622 479.017 481.797 467.096 476.63 452.386L475.846 451.584C484.577 450.782 494.921 447.602 503.27 445.214C516.794 441.65 529.107 442.434 543.015 438.861C549.386 437.267 555.738 435.28 562.109 433.293L562.109 429.72C554.954 422.566 549.787 413.023 542.24 406.27C521.971 388.78 499.697 371.683 476.639 357.374C464.317 349.427 448.413 344.25 435.307 337.505C430.522 335.118 422.584 333.924 419.804 329.95C412.632 321.21 408.667 309.681 403.499 299.337C391.979 277.472 380.842 253.229 370.908 230.171C363.753 214.669 359.37 199.166 350.639 184.857C309.69 117.277 265.16 76.3288 196.787 36.182C182.086 27.8337 164.596 24.252 145.904 19.8863C135.97 19.4854 126.036 18.6924 116.092 18.2915C109.722 15.5117 103.37 7.95631 97.801 4.37464C75.1438 -9.93421 16.7056 -40.9397 0 0C-10.7361 25.8379 15.9037 51.2749 25.045 64.3988C31.8163 73.5401 40.5477 83.8752 45.3322 94.2104C48.1031 100.964 48.8961 108.127 51.6847 115.282C58.0373 132.771 64.0068 152.248 72.3551 168.552C76.7208 176.901 81.4874 185.65 87.0559 193.205C90.2366 197.58 95.8051 199.567 96.9902 206.721C91.4217 214.677 91.0386 226.598 87.8579 236.542C73.5401 281.464 79.1086 337.113 99.378 370.106C105.748 380.04 120.85 401.904 141.129 393.556C159.019 386.401 155.037 363.744 160.204 343.867C161.407 339.1 160.605 335.92 162.984 332.739L162.984 333.532C168.553 344.66 174.121 355.396 179.289 366.524C191.611 386.001 213.083 406.279 230.973 419.795C240.507 426.949 248.062 439.28 259.983 443.646L259.983 442.443L259.199 442.443C256.811 438.879 253.23 437.284 250.049 434.496C242.895 427.341 234.947 418.592 229.379 410.645C212.691 388.388 197.99 363.735 184.866 338.298C178.496 325.976 172.927 312.46 167.777 300.138C165.372 295.363 165.372 288.208 161.407 285.83C155.438 294.57 146.706 302.134 142.314 312.861C134.758 329.95 133.974 351.021 131.194 372.885C129.591 373.286 130.393 372.885 129.591 373.678C116.886 370.507 112.502 357.383 107.735 346.255C95.8142 318.029 93.8185 272.715 104.154 240.114C106.933 231.766 118.872 205.527 114.106 197.58C111.7 190.024 103.771 185.659 99.3872 179.689C94.2196 172.134 88.6688 162.6 85.0872 154.252C75.5539 131.987 70.7872 107.343 60.4432 85.0777C55.6587 74.7425 47.3193 64.0064 40.5569 54.4731C33.0015 43.737 24.671 36.1817 18.7015 23.4676C16.7147 19.093 13.9348 11.9386 17.1156 7.17194C17.8996 3.99122 19.5034 2.79731 22.6663 2.00435C27.8339 -2.37029 42.5526 3.19823 47.7202 5.57711C62.4211 11.5376 74.743 17.1062 87.065 25.4456C92.6336 29.4193 98.603 36.9746 105.758 38.9704L114.115 38.9704C126.838 41.7502 141.138 39.7634 153.059 43.3361C174.13 50.0985 193.206 60.0328 210.312 70.7689C262.38 103.761 305.324 150.67 334.334 206.721C339.101 215.862 341.088 224.21 345.471 233.753C353.828 253.238 364.164 273.106 372.494 292.191C380.851 310.874 388.799 329.959 400.72 345.461C406.689 353.81 430.531 358.175 441.268 362.55C449.224 366.123 461.537 369.312 468.709 373.678C482.216 382.026 495.732 391.569 508.455 400.71C514.808 405.468 534.694 415.402 535.879 423.349L535.879 423.35Z" id="Shape-path" fill="#00678C" stroke="none" />
        <path d="M16.2868 3.39876e-05C9.53336 3.39876e-05 4.76668 0.792998 0 1.98688L0 2.77984L0.784024 2.77984C3.96471 9.14133 9.53323 13.516 13.5069 19.0756C16.6876 25.437 19.4763 31.7985 22.657 38.16L23.4411 37.367C29.0096 33.3933 31.7983 27.0318 31.7983 17.4896C29.4105 14.7098 29.0185 11.9211 27.0316 9.1413C24.6438 5.16761 19.4762 3.18076 16.2867 0L16.2868 3.39876e-05Z" transform="translate(114.1159 77.90508)" id="Shape" fill="#00678C" stroke="none" />
      </g>
    </g>
  </g>
</svg>